<?xml version="1.0" standalone="no"?>
<!DOCTYPE svg PUBLIC "-//W3C//DTD SVG 20010904//EN"
 "http://www.w3.org/TR/2001/REC-SVG-20010904/DTD/svg10.dtd">
<svg version="1.0" xmlns="http://www.w3.org/2000/svg"
 width="44.000000pt" height="63.000000pt" viewBox="0 0 44.000000 63.000000"
 preserveAspectRatio="xMidYMid meet">
<metadata>
Created by potrace 1.10, written by Peter Selinger 2001-2011
</metadata>
<g transform="translate(0.000000,63.000000) scale(0.100000,-0.100000)"
fill="#000000" stroke="none">
<path d="M186 574 c-10 -26 -7 -142 4 -149 6 -3 10 0 10 8 0 17 39 30 54 17 7
-5 9 -42 6 -102 -3 -51 -4 -95 -3 -97 2 -3 8 0 14 6 6 6 9 43 7 92 -2 44 -1
81 2 81 3 0 29 -15 58 -34 30 -20 52 -30 52 -22 0 7 -32 31 -71 53 l-70 41 45
26 c24 14 53 26 62 26 14 0 15 3 6 12 -14 14 -10 15 -114 -46 -43 -25 -48 -26
-48 -9 0 12 18 26 51 43 51 25 65 37 56 47 -3 3 -18 -4 -34 -14 -15 -11 -39
-26 -52 -33 -23 -12 -23 -11 -19 29 4 41 -5 55 -16 25z"/>
<path d="M233 578 c-20 -10 -32 -28 -18 -28 12 0 55 24 55 32 0 10 -9 9 -37
-4z"/>
<path d="M140 501 c0 -28 5 -51 10 -51 6 0 10 20 10 44 0 25 -4 48 -10 51 -6
4 -10 -13 -10 -44z"/>
<path d="M100 508 c0 -15 5 -30 10 -33 13 -8 13 25 0 45 -8 12 -10 9 -10 -12z"/>
<path d="M340 502 c0 -9 44 -32 58 -32 10 1 -38 40 -49 40 -5 0 -9 -4 -9 -8z"/>
<path d="M70 476 c0 -15 117 -89 132 -84 6 2 -17 21 -51 41 -33 21 -61 42 -61
48 0 5 -4 9 -10 9 -5 0 -10 -6 -10 -14z"/>
<path d="M333 449 c27 -16 54 -28 60 -26 14 4 -73 57 -94 57 -8 0 8 -14 34
-31z"/>
<path d="M70 421 c0 -8 84 -61 96 -61 17 0 -4 20 -46 43 -28 16 -50 24 -50 18z"/>
<path d="M190 365 c-30 -19 -63 -35 -72 -35 -10 0 -18 -4 -18 -10 0 -5 7 -10
14 -10 20 0 136 69 136 80 0 13 2 14 -60 -25z"/>
<path d="M300 340 c0 -33 4 -60 10 -60 6 0 10 27 10 60 0 33 -4 60 -10 60 -6
0 -10 -27 -10 -60z"/>
<path d="M70 374 c0 -11 34 -33 50 -33 10 -1 6 6 -10 19 -26 20 -40 25 -40 14z"/>
<path d="M352 340 c0 -19 2 -27 5 -17 2 9 2 25 0 35 -3 9 -5 1 -5 -18z"/>
<path d="M205 324 c-22 -13 -44 -25 -50 -27 -5 -3 -7 -8 -3 -12 8 -9 98 42 98
55 0 12 4 13 -45 -16z"/>
<path d="M216 281 c-15 -10 -24 -21 -19 -24 10 -6 60 29 52 37 -2 3 -17 -3
-33 -13z"/>
</g>
</svg>
